<?xml version="1.0" encoding="UTF-8"?>
<svg width="310px" height="282px" viewBox="0 0 310 282" version="1.1" xmlns="http://www.w3.org/2000/svg" xmlns:xlink="http://www.w3.org/1999/xlink">
    <!-- Generator: Sketch 52.2 (67145) - http://www.bohemiancoding.com/sketch -->
    <title>undraw_in_thought_gjsf</title>
    <desc>Created with Sketch.</desc>
    <g id="Page-1" stroke="none" stroke-width="1" fill="none" fill-rule="evenodd">
        <g id="Group-7" transform="translate(0.000000, -53.000000)">
            <g id="undraw_in_thought_gjsf" transform="translate(-115.000000, -14.000000)">
                <path d="M294,116 C299.115066,118.931673 304.115066,121.931673 309,125" id="Path" stroke="#2F2E41"></path>
                <path d="M198,99 C220.852726,103.935517 245.802402,112.455696 270.936568,124.480294 C289.141346,133.131912 306.561023,143.343366 323,155" id="Path" stroke="#2F2E41"></path>
                <path d="M176,95 C182.744035,95.6925683 189.765009,96.693302 197,98" id="Path" stroke="#2F2E41"></path>
                <path d="M109.609169,166 C96.8471636,147.696605 92.4630895,130.403382 99.020079,116.987692 C106.272383,102.149402 125.685171,94.5590522 152,94" id="Path" stroke="#2F2E41"></path>
                <path d="M375.320676,208 C385.751671,225.035451 388.988009,241.006767 383.038496,253.607994 C377.802891,264.697146 366.104233,271.798556 350,275" id="Path" stroke="#2F2E41"></path>
                <path d="M322,154 C332.609372,161.565177 342.637668,169.922091 352,179" id="Path" stroke="#2F2E41"></path>
                <path d="M103,71.7909628 C124.115497,67.422762 151.440119,68.1992563 182,74" id="Path" stroke="#2F2E41"></path>
                <path d="M408,208 C417.010237,221.689195 422.551645,234.936229 424,247" id="Path" stroke="#2F2E41"></path>
                <path d="M310,125 C319.459407,130.156654 328.459407,135.489987 337,141" id="Path" stroke="#2F2E41"></path>
                <path d="M324.037627,326 C319.176841,326.277619 314.888727,329.309237 312.962143,333.830162 C310.192707,340.599146 313.758558,348.550323 319.111553,353.486333 C324.464548,358.422343 331.340795,361.243727 337.588438,364.952246 C345.98007,369.933404 353.520632,376.848074 357.719439,385.724118 C361.918245,394.600161 362.364831,405.595002 357.429322,414.074629 C352.848332,421.945176 344.518575,426.655662 336.574149,431" id="Path" stroke="#3F3D56"></path>
                <ellipse id="Oval" fill="#57B894" cx="330" cy="326" rx="10" ry="5"></ellipse>
                <path d="M270.823523,140 L276.3002,140 C276.3002,140 281.320488,179.560869 277.669371,183.284244 C274.018253,187.00762 263.977676,189.334728 262.608516,183.284244 C261.239355,177.233761 262.608516,154.89349 262.608516,154.89349 L270.823523,140 Z" id="Path" fill="#FF8DBD"></path>
                <ellipse id="Oval" fill="#2F2E41" cx="234" cy="106.5" rx="34" ry="39.5"></ellipse>
                <path d="M226.165251,112.666668 C226.165251,112.666668 228.015922,128.066659 222.463909,131.333332 C216.911895,134.600004 228.94127,153.266667 228.94127,153.266667 L243.283978,157 L253,143.466665 L251.149329,129.466665 C251.149329,129.466665 240.045302,118.266667 245.134649,108 L226.165251,112.666668 Z" id="Path" fill="#FFC1C7"></path>
                <path d="M226.165251,112.666668 C226.165251,112.666668 228.015922,128.066659 222.463909,131.333332 C216.911895,134.600004 228.94127,153.266667 228.94127,153.266667 L243.283978,157 L253,143.466665 L251.149329,129.466665 C251.149329,129.466665 240.045302,118.266667 245.134649,108 L226.165251,112.666668 Z" id="Path" fill="#191414" opacity="0.0230654762"></path>
                <path d="M205.482758,279.127821 C205.482758,279.127821 199.896552,329.939857 205.482758,342.060159 C211.068964,354.180462 225.965519,388.210539 225.965519,388.210539 L221.310345,398 L233.87931,395.203005 L239,385.413533 C239,385.413533 232.948278,361.639092 232.017241,353.248113 C231.086204,344.857133 224.103445,329.473692 224.103445,329.473692 L237.137952,274 L205.482758,279.127821 Z" id="Path" fill="#FFC1C7"></path>
                <path d="M249,270.49827 C249,270.49827 249.462961,321.556299 252.703701,329.476293 L250.851851,398.636718 L261.037031,400 C261.037031,400 275.85182,341.979513 273.537039,328.054621 C271.222258,314.12973 274,264 274,264 L249,270.49827 Z" id="Path" fill="#FFC1C7"></path>
                <circle id="Oval" fill="#FFC1C7" cx="233.5" cy="101.5" r="17.5"></circle>
                <path d="M294,277.497469 C294,277.497469 281.464127,285.838964 276.356925,279.81455 C271.249724,273.790137 208.570399,283.521883 200.677416,281.668216 C192.784433,279.81455 204.856042,250.155888 204.856042,234.863139 C204.856042,223.421383 209.016059,206.015454 211.110056,197.970553 C211.815787,195.264186 212.284725,193.619064 212.284725,193.619064 C212.284725,193.619064 217.048359,180.091932 216.156955,174.470684 C216.096562,174.044617 215.979454,173.628505 215.808736,173.233371 C215.734398,173.068047 215.642552,172.911136 215.534765,172.765317 C213.310788,169.804074 206.936077,148.208876 204.461426,138.935902 C204.057518,137.563585 203.724335,136.171511 203.463187,134.765154 C203.463187,133.374904 220.641972,129.204156 224.936664,129.004888 C229.236008,128.805625 230.392089,134.765154 230.392089,134.765154 C231.784965,135.691985 238.285046,151.91157 238.285046,151.91157 L244.320833,136.618831 C244.320833,136.618831 243.856543,133.374914 243.392253,133.374914 C242.927963,133.374914 250.259131,129.00026 250.259131,129.00026 C250.259131,129.00026 257.785276,134.30175 261.963897,133.374914 C266.142518,132.448078 275.892641,140.789578 275.892641,140.789578 C275.892641,140.789578 258.713856,183.887324 265.678228,193.155639 C272.6426,202.423954 294,277.497469 294,277.497469 Z" id="Path" fill="#FF8DBD"></path>
                <path d="M214.734425,172.536006 C212.578515,169.600446 206.398911,148.192548 204,139 L206.182883,139 C206.182883,139 211.664866,160.899466 215,173 C214.927941,172.83611 214.838909,172.68056 214.734425,172.536006 Z" id="Path" fill="#000000" opacity="0.1"></path>
                <path d="M246.092475,201.987525 C246.092475,201.987525 239.587836,202.436618 215.89242,197.945684 C214.241248,197.639175 212.608131,197.247913 211,196.773556 C211.706225,194.150835 212.175491,192.55656 212.175491,192.55656 C212.175491,192.55656 216.942458,179.447512 216.05043,174 C217.160812,177.772374 217.987845,180.318753 218.2155,180.431025 C219.144734,180.880122 248.880154,185.820154 253.061745,187.616528 C257.243336,189.412903 246.092475,201.987525 246.092475,201.987525 Z" id="Path" fill="#000000" opacity="0.1"></path>
                <path d="M255,142.57726 C255,142.57726 267.843444,140.992213 268.639176,143.07512 C269.434907,145.158027 272.694392,165.288396 274.091324,167.86921 C275.488256,170.450024 275.953892,186.451056 270.366188,186.967199 C264.778485,187.483342 257.328188,181.805577 258.725136,177.160112 C260.122084,172.514648 255,142.57726 255,142.57726 Z" id="Path" fill="#000000" opacity="0.1"></path>
                <path d="M248.256194,185.34952 C248.256194,185.34952 268.118439,187.568369 271.428814,185.34952 C274.739189,183.130672 288.453599,183.130672 285.616133,189.343449 C282.778667,195.556226 258.187319,196 258.187319,196 L244,196 L248.256194,185.34952 Z" id="Path" fill="#FFC1C7"></path>
                <path d="M206.924705,135 L203.69466,135 C203.69466,135 197.234562,136.402598 198.157444,156.974028 C199.080326,177.545458 192.620227,191.103896 216.153399,195.779223 C239.686571,200.454549 246.14666,199.987013 246.14666,199.987013 C246.14666,199.987013 257.221098,186.89608 253.068182,185.025977 C248.915266,183.155873 219.383443,178.012989 218.460546,177.545458 C217.537648,177.077927 206.924705,135 206.924705,135 Z" id="Path" fill="#FF8DBD"></path>
                <path d="M268,144.415909 C268,144.415909 259.848715,114 253.336121,114 C246.823528,114 239.380533,115.388061 244.962768,121.402989 C250.545002,127.417917 257.522801,133.895525 257.988006,137.134331 C258.453212,140.373138 260.313936,145 260.313936,145 L268,144.415909 Z" id="Path" fill="#FFC1C7"></path>
                <path d="M257,142.57726 C257,142.57726 269.843444,140.992213 270.639176,143.07512 C271.434907,145.158027 274.694392,165.288396 276.091324,167.86921 C277.488256,170.450024 277.953892,186.451056 272.366188,186.967199 C266.778485,187.483342 259.328188,181.805577 260.725136,177.160112 C262.122084,172.514648 257,142.57726 257,142.57726 Z" id="Path" fill="#FF8DBD"></path>
                <circle id="Oval" fill="#2F2E41" cx="229" cy="85" r="17"></circle>
                <path d="M296,274 C270.138457,269.715266 240.881537,260.40118 211.368512,246.19044 C177.764788,230.010007 149.28988,210.110874 129,190" id="Path" stroke="#2F2E41"></path>
                <path d="M191,255 C167.917537,243.070634 147.020307,229.808074 129,216" id="Path" stroke="#2F2E41"></path>
                <ellipse id="Oval" cx="119.5" cy="308" rx="23.5" ry="23"></ellipse>
                <ellipse id="Oval" stroke="#2F2E41" cx="124.5" cy="299" rx="23.5" ry="23"></ellipse>
            </g>
        </g>
    </g>
</svg>