<?xml version="1.0" encoding="UTF-8"?>
<svg width="400px" height="400px" viewBox="0 0 400 400" version="1.1" xmlns="http://www.w3.org/2000/svg" xmlns:xlink="http://www.w3.org/1999/xlink">
    <!-- Generator: Sketch 52.2 (67145) - http://www.bohemiancoding.com/sketch -->
    <title>FINAL Copy</title>
    <desc>Created with Sketch.</desc>
    <g id="FINAL-Copy" stroke="none" stroke-width="1" fill="none" fill-rule="evenodd">
        <g id="Hotscope" transform="translate(50.000000, 149.000000)" fill="#FFFFFF">
            <path d="M157,-106 L203,-106 C205.761424,-106 208,-103.761424 208,-101 L208,-68.5426219 C208,-65.7811981 205.761424,-63.5426219 203,-63.5426219 L176.068342,-63.5426219 C158.432974,-63.5426219 144.136684,-49.2463316 144.136684,-31.6109639 L144.136684,133.406842 C144.136684,151.04221 158.432974,165.3385 176.068342,165.3385 L203,165.3385 C205.761424,165.3385 208,167.577076 208,170.3385 L208,203 C208,205.761424 205.761424,208 203,208 L157,208 C128.833478,208 106,185.166522 106,157 L106,-55 C106,-83.1665222 128.833478,-106 157,-106 Z" id="[" transform="translate(157.000000, 51.000000) rotate(-90.000000) translate(-157.000000, -51.000000) "></path>
        </g>
    </g>
</svg>